<?xml version="1.0" encoding="UTF-8"?>
<!DOCTYPE svg PUBLIC "-//W3C//DTD SVG 1.1//EN" "http://www.w3.org/Graphics/SVG/1.1/DTD/svg11.dtd">
<!-- Creator: CorelDRAW X6 -->
<svg xmlns="http://www.w3.org/2000/svg" xml:space="preserve" width="64px" height="83px" version="1.1" style="shape-rendering:geometricPrecision; text-rendering:geometricPrecision; image-rendering:optimizeQuality; fill-rule:evenodd; clip-rule:evenodd"
viewBox="0 0 64 83"
 xmlns:xlink="http://www.w3.org/1999/xlink"
 enable-background="new 0 0 268.188 268.188">
 <defs>
  <style type="text/css">
   <![CDATA[
    .fil0 {fill:white}
   ]]>
  </style>
 </defs>
 <g id="图层_x0020_1">
  <metadata id="CorelCorpID_0Corel-Layer"/>
  <g id="_254217984">
   <path class="fil0" d="M2 26l27 -20 27 20c0,0 1,0 1,0 1,0 1,0 2,-1 1,-1 1,-2 0,-3l-28 -21c-1,-1 -2,-1 -3,0l-28 21c-1,1 -1,2 0,3 1,1 2,1 3,0l0 0z"/>
   <path class="fil0" d="M65 74l-6 -6 0 -35c0,-1 0,-1 -1,-2l-28 -21c-1,-1 -2,-1 -3,0l-28 21c-1,0 -1,1 -1,2l0 36c0,1 1,2 2,2l47 0 10 10c0,0 1,1 1,1 1,0 1,0 1,-1l4 -4c1,-1 1,-2 0,-3l0 0zm-62 -39l26 -20 26 20 0 30 -9 -9c3,-6 2,-15 -3,-20 -3,-3 -8,-5 -12,-5 -5,0 -9,2 -12,5 -7,7 -7,18 0,24 3,3 8,5 12,5 3,0 6,-1 8,-2l5 5 -41 0 0 -32zm28 26c-3,0 -7,-1 -9,-4 -5,-5 -5,-13 0,-18 2,-2 6,-4 9,-4 3,0 7,1 9,4 5,5 5,13 0,18 -2,2 -6,4 -9,4zm12 0c0,0 0,0 1,-1 0,0 0,0 1,-1l17 17 -1 1 -17 -17z"/>
   <path class="fil0" d="M39 52c-1,-1 -2,-1 -3,0 -3,3 -7,3 -10,0 -1,-1 -2,-1 -3,0 -1,1 -1,2 0,3 2,2 5,3 8,3 3,0 6,-1 8,-3 1,-1 1,-2 0,-3l0 0z"/>
  </g>
 </g>
</svg>
