<?xml version="1.0" encoding="UTF-8"?>
<!DOCTYPE svg PUBLIC "-//W3C//DTD SVG 1.1//EN" "http://www.w3.org/Graphics/SVG/1.1/DTD/svg11.dtd">
<!-- Creator: CorelDRAW X6 -->
<svg xmlns="http://www.w3.org/2000/svg" xml:space="preserve" width="64px" height="64px" version="1.1" style="shape-rendering:geometricPrecision; text-rendering:geometricPrecision; image-rendering:optimizeQuality; fill-rule:evenodd; clip-rule:evenodd"
viewBox="0 0 64 64"
 xmlns:xlink="http://www.w3.org/1999/xlink"
 enable-background="new 0 0 212.755 212.755">
 <defs>
  <style type="text/css">
   <![CDATA[
    .fil0 {fill:white}
   ]]>
  </style>
 </defs>
 <g id="图层_x0020_1">
  <metadata id="CorelCorpID_0Corel-Layer"/>
  <g id="_254241376">
   <path class="fil0" d="M32 1c-17,0 -31,14 -31,31 0,17 14,31 31,31 17,0 31,-14 31,-31 0,-17 -14,-31 -31,-31zm0 58c-15,0 -27,-12 -27,-27 0,-15 12,-27 27,-27 15,0 27,12 27,27 0,15 -12,27 -27,27z"/>
   <path class="fil0" d="M34 30l0 -12c1,0 2,1 3,2 1,1 2,1 3,1 1,-1 1,-2 1,-3 -1,-2 -4,-4 -6,-4l0 -3c0,-1 -1,-2 -2,-2 -1,0 -2,1 -2,2l0 3c-5,1 -8,5 -8,10 0,5 3,9 8,10l0 12c-1,0 -2,-1 -3,-2 -1,-1 -2,-1 -3,-1 -1,1 -1,2 -1,3 1,2 4,4 6,4l0 3c0,1 1,2 2,2 1,0 2,-1 2,-2l0 -3c5,-1 8,-5 8,-10 0,-5 -3,-9 -8,-10zm-8 -6c0,-3 2,-5 4,-6l0 11c-2,-1 -4,-3 -4,-6l0 0zm8 21l0 -11c2,1 4,3 4,6 0,3 -2,5 -4,6l0 0z"/>
  </g>
 </g>
</svg>
