<?xml version="1.0" encoding="UTF-8"?>
<!DOCTYPE svg PUBLIC "-//W3C//DTD SVG 1.1//EN" "http://www.w3.org/Graphics/SVG/1.1/DTD/svg11.dtd">
<!-- Creator: CorelDRAW X6 -->
<svg xmlns="http://www.w3.org/2000/svg" xml:space="preserve" width="180px" height="103px" version="1.1" style="shape-rendering:geometricPrecision; text-rendering:geometricPrecision; image-rendering:optimizeQuality; fill-rule:evenodd; clip-rule:evenodd"
viewBox="0 0 180 103"
 xmlns:xlink="http://www.w3.org/1999/xlink">
 <defs>
  <style type="text/css">
   <![CDATA[
    .str0 {stroke:#F58634;stroke-width:1.02817}
    .fil2 {fill:none;fill-rule:nonzero}
    .fil0 {fill:#3E4095;fill-rule:nonzero}
    .fil3 {fill:#ED3237;fill-rule:nonzero}
    .fil4 {fill:#F58634;fill-rule:nonzero}
    .fil1 {fill:#FEFEFE;fill-rule:nonzero}
   ]]>
  </style>
 </defs>
 <g id="图层_x0020_1">
  <metadata id="CorelCorpID_0Corel-Layer"/>
  <path class="fil0" d="M116 57c0,1 0,2 -1,3 -1,1 -2,1 -3,1 -1,0 -2,0 -3,-1 -1,-1 -1,-2 -1,-3 0,-1 0,-2 1,-3 1,-1 2,-1 3,-1 1,0 2,0 3,1 1,1 1,2 1,3z"/>
  <path id="1" class="fil0" d="M138 38c0,0 0,1 -1,2 0,1 -1,2 -1,2 -1,0 -2,-1 -2,-1 -1,0 -2,0 -2,0 -2,0 -4,1 -5,2 -1,2 -2,3 -2,5 0,2 1,4 2,5 1,2 3,2 5,2 1,0 2,0 3,-1 1,-1 2,-1 1,-1 0,0 0,1 1,2 0,1 0,2 0,3 0,1 -1,1 -3,2 -2,0 -3,1 -4,1 -3,0 -6,-1 -9,-4 -2,-3 -3,-6 -3,-9 0,-4 1,-7 3,-9 2,-3 5,-4 9,-4 2,0 5,1 6,2 0,0 1,0 1,1z"/>
  <path id="2" class="fil0" d="M165 38c0,0 0,0 0,0 -1,4 -1,7 -1,10 0,0 0,4 1,11l0 0c0,0 0,1 -1,1 0,0 -1,0 -2,0 -1,0 -2,0 -2,0 0,0 -1,-1 -1,-2 0,-1 0,-2 0,-2 0,0 -1,0 -1,1 -1,1 -2,1 -3,2 -1,1 -3,1 -4,1 -3,0 -6,-1 -8,-4 -2,-2 -3,-5 -3,-9 0,-4 1,-7 3,-9 2,-3 5,-4 9,-4 3,0 5,1 7,3 0,0 1,1 1,1 0,0 0,0 0,0 0,0 0,-1 0,-2 0,-1 0,-2 1,-2 0,0 1,0 3,0 1,0 2,1 2,1zm-6 10c0,-2 -1,-4 -2,-5 -1,-2 -3,-2 -5,-2 -2,0 -4,1 -5,2 -1,2 -2,3 -2,5 0,2 1,4 2,5 1,2 3,2 5,2 2,0 4,-1 5,-2 1,-1 2,-3 2,-5z"/>
 </g>
 <g id="图层_x0020_1_0">
  <metadata id="CorelCorpID_1Corel-Layer"/>
  <path class="fil1" d="M23 55l-13 0 0 -28c0,-5 1,-9 4,-13 2,-2 4,-3 6,-4 2,-1 5,-2 7,-2 5,0 9,2 13,5 3,3 5,7 5,12 0,5 -2,9 -5,12 -3,3 -7,5 -12,5 -1,0 -2,0 -3,0l0 -14c1,1 2,1 3,1 1,0 2,0 3,-1 1,-1 1,-2 1,-3 0,-1 0,-2 -1,-3 -1,-1 -2,-1 -3,-1 -3,0 -5,2 -5,7l0 27z"/>
  <path id="1" class="fil1" d="M71 55l0 -27c0,-4 -2,-7 -5,-7 -1,0 -2,0 -3,1 -1,1 -1,2 -1,3 0,1 0,2 1,3 1,1 2,1 3,1 1,0 2,0 3,-1l0 14c-1,0 -3,0 -3,0 -5,0 -9,-2 -12,-5 -3,-3 -5,-8 -5,-12 0,-5 2,-9 5,-12 3,-3 8,-5 13,-5 3,0 5,1 7,2 2,1 4,3 6,4 3,3 4,7 4,13l0 28 -13 0z"/>
  <path id="2" class="fil1" d="M91 10l13 0 0 19c0,2 1,3 2,3 2,0 2,-1 2,-3l0 -19 13 0 0 19c0,4 -1,8 -4,11 -3,3 -6,4 -11,4 -5,0 -9,-2 -11,-5 -2,-3 -3,-6 -3,-11l0 -18z"/>
  <path id="3" class="fil2 str0" d="M23 55l-13 0 0 -28c0,-5 1,-9 4,-13 2,-2 4,-3 6,-4 2,-1 5,-2 7,-2 5,0 9,2 13,5 3,3 5,7 5,12 0,5 -2,9 -5,12 -3,3 -7,5 -12,5 -1,0 -2,0 -3,0l0 -14c1,1 2,1 3,1 1,0 2,0 3,-1 1,-1 1,-2 1,-3 0,-1 0,-2 -1,-3 -1,-1 -2,-1 -3,-1 -3,0 -5,2 -5,7l0 27z"/>
  <path id="4" class="fil2 str0" d="M71 55l0 -27c0,-4 -2,-7 -5,-7 -1,0 -2,0 -3,1 -1,1 -1,2 -1,3 0,1 0,2 1,3 1,1 2,1 3,1 1,0 2,0 3,-1l0 14c-1,0 -3,0 -3,0 -5,0 -9,-2 -12,-5 -3,-3 -5,-8 -5,-12 0,-5 2,-9 5,-12 3,-3 8,-5 13,-5 3,0 5,1 7,2 2,1 4,3 6,4 3,3 4,7 4,13l0 28 -13 0z"/>
  <path id="5" class="fil2 str0" d="M91 10l13 0 0 19c0,2 1,3 2,3 2,0 2,-1 2,-3l0 -19 13 0 0 19c0,4 -1,8 -4,11 -3,3 -6,4 -11,4 -5,0 -9,-2 -11,-5 -2,-3 -3,-6 -3,-11l0 -18z"/>
  <path class="fil3" d="M26 85c0,0 0,0 0,0 0,0 0,0 -1,0 0,0 -1,0 -1,0 0,0 0,0 -1,0 0,0 -1,0 -1,0 0,0 0,0 0,0 0,-1 -1,-2 -2,-5 0,0 0,0 -1,-1 0,0 0,0 -1,0 -1,0 -2,0 -2,0 0,0 0,0 0,1 0,1 0,1 0,3 0,1 0,2 0,3 0,0 0,0 0,0 0,0 0,0 -1,0 0,0 -1,0 -1,0 0,0 0,0 -1,0 0,0 -1,0 -1,0 0,0 0,0 0,0 0,-1 0,-2 0,-4 0,-2 0,-3 0,-4 0,-3 0,-5 0,-8l0 0c0,0 0,0 1,0 1,0 2,0 3,0 1,0 3,0 3,0 2,0 3,0 4,1 1,1 2,2 2,4 0,1 0,2 -1,3 0,1 -1,1 -2,2 0,0 0,0 0,0 0,0 0,1 1,3 1,2 2,3 2,3zm-3 -11c0,-2 0,-3 -1,-3 -1,0 -2,-1 -3,-1 -1,0 -2,0 -2,0 0,0 0,2 0,4l0 2c0,0 0,0 0,0 0,0 0,0 1,0 1,0 2,0 3,0 2,0 3,-1 3,-3z"/>
  <path id="1" class="fil3" d="M46 83c0,0 0,0 0,1 0,0 0,1 0,1 0,0 0,1 0,1 0,0 0,0 0,0 0,0 0,0 0,0 -1,0 -3,0 -5,0 -1,0 -2,0 -3,0 -1,0 -2,0 -3,0 0,0 0,0 0,0 0,-1 0,-2 0,-4 0,-2 0,-3 0,-4 0,-1 0,-3 0,-5 0,-1 0,-2 0,-3l0 0c0,0 0,0 0,0 1,0 1,0 3,0 1,0 2,0 3,0 1,0 1,0 3,0 1,0 2,0 3,0 0,0 1,0 1,0 0,1 0,2 0,2 0,0 0,0 0,0 -1,0 -2,0 -3,0 -1,0 -3,0 -3,0 -1,0 -1,0 -1,0 0,0 0,1 0,1l0 2c0,1 0,1 0,1 0,0 0,0 1,0 0,0 0,0 0,0 0,0 0,0 0,0 2,0 3,0 4,0 1,0 1,0 2,0 0,0 0,0 0,0 0,0 0,1 0,1 0,1 0,1 0,1 0,0 0,0 0,0 0,0 0,0 -1,0 0,0 -2,0 -3,0 -1,0 -2,0 -3,0 0,0 -1,0 -1,1 0,0 0,0 0,1l0 2c0,1 0,1 0,2 0,0 1,0 2,0l1 0c1,0 2,0 5,0l0 0c0,0 0,0 0,0z"/>
  <path id="2" class="fil3" d="M70 85c0,0 0,0 0,0 0,0 0,0 -1,0 0,0 -1,0 -1,0 0,0 0,0 -1,0 0,0 -1,0 -1,0 0,0 -1,-1 -1,-2 0,-1 -1,-2 -1,-2 0,0 -1,0 -2,0l-2 0c-1,0 -2,0 -2,0 0,0 -1,1 -1,2 0,1 -1,2 -1,2l-3 0c0,0 0,0 0,0 0,0 0,0 0,-1l3 -8c0,-1 1,-3 2,-6 0,-1 1,-1 1,-2 0,0 0,0 0,0 0,0 0,0 1,0 0,0 1,0 1,0 0,0 0,0 1,0 0,0 1,0 1,0 0,0 0,0 0,0 0,0 1,3 3,8 2,6 4,10 4,10zm-6 -7c0,0 0,-1 -1,-3 -1,-2 -1,-3 -1,-4 -2,4 -3,7 -3,7 0,0 0,0 1,1 0,0 0,0 1,0l1 0c1,0 2,0 2,0z"/>
  <path id="3" class="fil3" d="M90 83c0,1 0,2 0,2 0,0 0,0 0,0 -1,0 -2,0 -3,0 -1,0 -2,0 -3,0 -1,0 -1,0 -3,0 -1,0 -2,0 -3,0 0,0 0,0 0,0 0,-1 0,-2 0,-4 0,-2 0,-3 0,-4 0,-1 0,-2 0,-4 0,-2 0,-3 0,-4 0,0 0,0 0,0 0,0 0,0 1,0 0,0 1,0 1,0 0,0 0,0 1,0 0,0 1,0 1,0 0,0 0,0 0,0 0,1 0,2 0,4 0,2 0,3 0,4 0,0 0,1 0,2 0,1 0,2 0,2 0,2 0,3 0,3 3,0 5,0 7,0 0,0 0,0 1,0 0,0 0,0 1,0 0,0 0,0 0,0z"/>
  <path class="fil4" d="M103 90c0,0 0,0 0,1 0,0 0,0 0,1 0,0 0,1 0,1 0,0 0,0 0,0 0,0 0,0 0,0 -1,0 -2,0 -4,0 -1,0 -1,0 -2,0 -1,0 -2,0 -2,0 0,0 0,0 0,0 0,-1 0,-2 0,-4 0,-2 0,-3 0,-4 0,-1 0,-2 0,-5 0,-1 0,-1 0,-3l0 0c0,0 0,0 0,0 1,0 1,0 2,0 1,0 2,0 2,0 0,0 1,0 2,0 1,0 2,0 2,0 0,0 1,0 1,0 0,1 0,2 0,2 0,0 0,0 0,0 -1,0 -2,0 -3,0 -1,0 -2,0 -3,0 -1,0 -1,0 -1,0 0,0 0,1 0,1l0 2c0,0 0,1 0,1 0,0 0,0 1,0 0,0 0,0 0,0 0,0 0,0 0,0 1,0 3,0 4,0 0,0 1,0 2,0 0,0 0,0 0,0 0,0 0,1 0,1 0,0 0,1 0,1 0,0 0,0 0,0 0,0 0,0 -1,0 0,0 -1,0 -3,0 -1,0 -2,0 -2,0 0,0 0,0 -1,0 0,0 0,0 0,1l0 2c0,1 0,1 0,1 0,0 1,0 1,0l1 0c1,0 2,0 4,0l0 0c0,0 0,0 0,0z"/>
  <path id="1" class="fil4" d="M113 77c0,0 0,1 -1,1 0,0 0,1 0,1 0,0 0,0 0,0 0,0 0,0 -1,0 -1,0 -1,0 -2,0 -1,0 -2,1 -2,2 0,1 0,1 1,2 2,1 3,1 3,1 1,1 1,2 1,3 0,2 -1,3 -2,4 -1,1 -3,1 -4,1 -1,0 -1,0 -1,0 0,0 0,-1 0,-1 0,0 0,-1 0,-1 0,0 0,0 0,0 0,0 0,0 0,0 0,0 0,0 1,0 0,0 1,0 1,0 2,0 3,-1 3,-2 0,-1 0,-1 -1,-2 -2,-1 -3,-1 -3,-2 -1,-1 -1,-2 -1,-3 0,-1 0,-2 1,-3 1,-1 2,-1 3,-1 1,0 1,0 2,0 1,0 1,0 2,1 0,0 0,0 0,0z"/>
  <path id="2" class="fil4" d="M125 78c0,0 0,0 0,0 0,0 -2,0 -4,0 0,2 0,4 0,5 0,1 0,2 0,4 0,2 0,3 0,4 0,0 0,0 0,0 0,0 0,0 -1,0 0,0 0,0 -1,0 0,0 0,0 -1,0 0,0 0,0 -1,0 0,0 0,0 0,0 0,-1 0,-2 0,-4 0,-2 0,-3 0,-4 0,-1 0,-3 0,-5 -2,0 -3,0 -4,0 0,0 0,0 0,0 0,0 0,0 0,-1 0,0 0,-1 0,-1 0,0 0,-1 0,-1 0,0 0,0 0,0l0 0c3,0 4,0 5,0 1,0 2,0 4,0 1,0 2,0 1,0 0,0 0,0 0,0 0,0 0,0 0,1 0,0 0,0 0,0 0,0 0,0 0,0z"/>
  <path id="3" class="fil4" d="M140 92c0,0 0,0 0,0 0,0 0,0 -1,0 0,0 0,0 -1,0 0,0 0,0 -1,0 0,0 0,0 -1,0 0,0 0,-1 -1,-2 0,-1 -1,-2 -1,-2 0,0 -1,0 -2,0l-2 0c-1,0 -2,0 -2,0 0,0 -1,1 -1,2 0,1 -1,2 -1,2l-2 0c0,0 0,0 0,0 0,0 0,0 0,-1l3 -7c0,-1 1,-2 2,-5 0,0 1,-1 1,-2 0,0 0,0 0,0 0,0 0,0 1,0 0,0 0,0 1,0 0,0 0,0 1,0 0,0 0,0 1,0 0,0 0,0 0,0 0,0 1,3 3,7 2,6 3,9 3,9zm-5 -6c0,0 0,-1 -1,-3 -1,-2 -1,-3 -1,-3 -2,4 -2,6 -2,6 0,0 0,0 1,0 0,0 0,0 1,0l1 0c1,0 2,0 2,0z"/>
  <path id="4" class="fil4" d="M152 78c0,0 0,0 0,0 0,0 -2,0 -4,0 0,2 0,4 0,5 0,1 0,2 0,4 0,2 0,3 0,4 0,0 0,0 0,0 0,0 0,0 -1,0 0,0 0,0 -1,0 0,0 0,0 -1,0 0,0 0,0 -1,0 0,0 0,0 0,0 0,-1 0,-2 0,-4 0,-2 0,-3 0,-4 0,-1 0,-3 0,-5 -2,0 -3,0 -4,0 0,0 0,0 0,0 0,0 0,0 0,-1 0,0 0,-1 0,-1 0,0 0,-1 0,-1 0,0 0,0 0,0l0 0c3,0 4,0 5,0 1,0 2,0 4,0 1,0 2,0 1,0 0,0 0,0 0,0 0,0 0,0 0,1 0,0 0,0 0,0 0,0 0,0 0,0z"/>
  <path id="5" class="fil4" d="M164 90c0,0 0,0 0,1 0,0 0,0 0,1 0,0 0,1 0,1 0,0 0,0 0,0 0,0 0,0 0,0 -1,0 -2,0 -4,0 -1,0 -1,0 -2,0 -1,0 -2,0 -2,0 0,0 0,0 0,0 0,-1 0,-2 0,-4 0,-2 0,-3 0,-4 0,-1 0,-2 0,-5 0,-1 0,-1 0,-3l0 0c0,0 0,0 0,0 1,0 1,0 2,0 1,0 2,0 2,0 0,0 1,0 2,0 1,0 2,0 2,0 0,0 1,0 1,0 0,1 0,2 0,2 0,0 0,0 0,0 -1,0 -2,0 -3,0 -1,0 -2,0 -3,0 -1,0 -1,0 -1,0 0,0 0,1 0,1l0 2c0,0 0,1 0,1 0,0 0,0 1,0 0,0 0,0 0,0 0,0 0,0 0,0 1,0 3,0 4,0 0,0 1,0 2,0 0,0 0,0 0,0 0,0 0,1 0,1 0,0 0,1 0,1 0,0 0,0 0,0 0,0 0,0 -1,0 0,0 -1,0 -3,0 -1,0 -2,0 -2,0 0,0 0,0 -1,0 0,0 0,0 0,1l0 2c0,1 0,1 0,1 0,0 1,0 1,0l1 0c1,0 2,0 4,0l0 0c0,0 0,0 0,0z"/>
 </g>
</svg>
