<?xml version="1.0" encoding="UTF-8"?>
<!DOCTYPE svg PUBLIC "-//W3C//DTD SVG 1.1//EN" "http://www.w3.org/Graphics/SVG/1.1/DTD/svg11.dtd">
<!-- Creator: CorelDRAW X6 -->
<svg xmlns="http://www.w3.org/2000/svg" xml:space="preserve" width="64px" height="83px" version="1.1" style="shape-rendering:geometricPrecision; text-rendering:geometricPrecision; image-rendering:optimizeQuality; fill-rule:evenodd; clip-rule:evenodd"
viewBox="0 0 64 83"
 xmlns:xlink="http://www.w3.org/1999/xlink"
 enable-background="new 0 0 302.262 302.262">
 <defs>
  <style type="text/css">
   <![CDATA[
    .fil0 {fill:white}
   ]]>
  </style>
 </defs>
 <g id="图层_x0020_1">
  <metadata id="CorelCorpID_0Corel-Layer"/>
  <g id="_242717424">
   <path class="fil0" d="M61 31c1,-3 1,-6 -1,-8l-1 -2c0,-1 -1,-1 -1,-2l0 -2c0,-3 -2,-5 -4,-6l-2 -1c-1,0 -1,-1 -2,-2l-1 -2c-2,-2 -4,-4 -7,-4l-2 0c-1,0 -2,0 -2,-1l-2 -1c-2,-1 -5,-1 -8,0l-2 1c-1,0 -1,1 -2,1l-2 0c-3,0 -5,1 -7,4l-1 2c0,1 -1,1 -2,2l-2 1c-2,1 -4,4 -4,6l0 2c0,1 0,1 -1,2l-1 2c-2,2 -2,5 -1,8l1 2c0,1 0,1 0,2l0 2c0,3 1,6 3,7l1 1c1,1 1,1 1,2l1 2c1,2 2,4 4,4l-8 19c0,1 0,1 0,2 1,1 1,1 2,0l8 -3 4 8c0,1 1,1 2,1 0,0 0,0 0,0 1,0 1,0 2,-1l8 -19 8 19c0,1 1,1 2,1 0,0 0,0 0,0 1,0 1,0 2,-1l4 -8 8 3c1,0 1,0 2,0 1,-1 1,-1 0,-2l-8 -19c2,-1 3,-3 4,-4l1 -2c0,-1 1,-1 1,-2l1 -1c2,-2 3,-5 3,-7l0 -2c0,-1 0,-2 0,-2l1 -2 0 0zm-6 11l-1 1c-1,1 -2,2 -2,3l-1 2c-1,1 -2,3 -3,3l-2 0c-1,0 -3,1 -4,2l-1 1c-1,1 -3,1 -4,1l-2 0c-1,0 -3,0 -4,0l-2 0c-2,0 -3,0 -4,-1l-1 -1c-1,-1 -2,-2 -4,-2l-2 0c-2,0 -3,-1 -3,-3l-1 -2c0,-1 -1,-2 -2,-3l-1 -1c-1,-1 -2,-3 -2,-4l0 -2c0,-1 0,-3 0,-4l-1 -2c-1,-1 0,-3 1,-4l1 -2c1,-1 1,-2 1,-4l0 -2c0,-2 1,-3 3,-4l2 -1c1,-1 2,-2 3,-3l1 -2c1,-1 2,-2 4,-2l2 0c1,0 3,0 4,-1l2 -1c1,-1 3,-1 4,0l2 1c1,1 3,1 4,1l2 0c2,0 3,1 4,2l1 2c1,1 2,2 3,3l2 1c1,1 2,2 3,4l0 2c0,1 1,3 1,4l1 2c1,1 1,3 1,4l-1 2c0,1 -1,3 0,4l0 2c0,2 0,3 -2,4l0 0zm-8 26c-1,0 -2,0 -2,1l-3 6 -6 -15c3,1 5,0 7,-2l1 -1c1,-1 1,-1 2,-1l0 0 6 15 -6 -2 0 0zm-27 1c0,-1 -1,-1 -2,-1l-6 2 6 -15 0 0c1,0 1,1 2,1l1 1c2,1 4,2 6,2 1,0 1,0 2,0l-6 15 -3 -6 0 0z"/>
   <path class="fil0" d="M32 51c11,0 20,-9 20,-20 0,-11 -9,-20 -20,-20 -11,0 -20,9 -20,20 0,11 9,20 20,20zm0 -37c9,0 17,7 17,17 0,9 -7,17 -17,17 -9,0 -17,-7 -17,-17 0,-9 7,-17 17,-17z"/>
   <path class="fil0" d="M23 41l17 0c1,0 2,-1 2,-2l0 -11c0,-1 0,-1 -1,-1l-9 -7c-1,-1 -2,-1 -2,0l-9 7c0,0 -1,1 -1,1l0 11c0,1 1,2 2,2l0 0zm2 -12l7 -5 7 5 0 8 -5 0 0 -4c0,0 0,-1 -1,-1l-2 0c0,0 -1,0 -1,1l0 4 -5 0 0 -8z"/>
  </g>
 </g>
</svg>
