<?xml version="1.0" encoding="UTF-8"?>
<!DOCTYPE svg PUBLIC "-//W3C//DTD SVG 1.1//EN" "http://www.w3.org/Graphics/SVG/1.1/DTD/svg11.dtd">
<!-- Creator: CorelDRAW X6 -->
<svg xmlns="http://www.w3.org/2000/svg" xml:space="preserve" width="64px" height="83px" version="1.1" style="shape-rendering:geometricPrecision; text-rendering:geometricPrecision; image-rendering:optimizeQuality; fill-rule:evenodd; clip-rule:evenodd"
viewBox="0 0 64 83"
 xmlns:xlink="http://www.w3.org/1999/xlink"
 enable-background="new 0 0 316.484 316.484">
 <defs>
  <style type="text/css">
   <![CDATA[
    .fil0 {fill:white}
   ]]>
  </style>
 </defs>
 <g id="图层_x0020_1">
  <metadata id="CorelCorpID_0Corel-Layer"/>
  <g id="_254223616">
   <path class="fil0" d="M55 10l-17 0 0 -7c0,-1 -1,-2 -2,-2l-8 0c-1,0 -2,1 -2,2l0 7 -17 0c-4,0 -8,3 -8,8l0 24c0,4 3,8 8,8l17 0 0 31c0,1 1,2 2,2l8 0c1,0 2,-1 2,-2l0 -31 17 0c4,0 8,-3 8,-8l0 -24c0,-4 -3,-8 -8,-8zm4 31c0,2 -2,4 -4,4l-47 0c-2,0 -4,-2 -4,-4l0 -24c0,-2 2,-4 4,-4l47 0c2,0 4,2 4,4l0 24 0 0zm-30 -37l5 0 0 5 -5 0 0 -5zm5 73l-5 0 0 -29 5 0 0 29z"/>
   <path class="fil0" d="M9 16c0,0 -1,-1 -1,-1 0,0 -1,0 -1,1 0,0 -1,1 -1,1 0,0 0,1 1,1 0,0 1,1 1,1 0,0 1,0 1,-1 0,0 1,-1 1,-1 0,0 0,-1 -1,-1z"/>
   <path class="fil0" d="M56 15c0,0 -1,0 -1,1 0,0 -1,1 -1,1 0,0 0,1 1,1 0,0 1,1 1,1 0,0 1,0 1,-1 0,0 1,-1 1,-1 0,0 0,-1 -1,-1 0,0 -1,-1 -1,-1z"/>
   <path class="fil0" d="M14 26l3 0c1,0 2,-1 2,-2 0,-1 -1,-2 -2,-2l-3 0c-3,0 -5,2 -5,5 0,3 2,5 5,5 1,0 1,1 1,1 0,1 -1,1 -1,1l-3 0c-1,0 -2,1 -2,2 0,1 1,2 2,2l3 0c3,0 5,-2 5,-5 0,-3 -2,-5 -5,-5 -1,0 -1,-1 -1,-1 0,-1 1,-1 1,-1z"/>
   <path class="fil0" d="M27 22l-1 0c-3,0 -5,2 -5,5l0 7c0,3 2,5 5,5l1 0c3,0 5,-2 5,-5l0 -7c0,-3 -2,-5 -5,-5l0 0zm1 12c0,1 0,1 -1,1l-1 0c-1,0 -1,0 -1,-1l0 -7c0,-1 0,-1 1,-1l1 0c1,0 1,0 1,1l0 7 0 0z"/>
   <path class="fil0" d="M48 22l-2 0c-1,0 -2,1 -2,2l0 13c0,1 1,2 2,2l2 0c3,0 6,-3 6,-6l0 -4c0,-3 -3,-6 -6,-6zm3 10c0,1 -1,3 -3,3l0 0 0 -9 0 0c1,0 3,1 3,3l0 4z"/>
   <path class="fil0" d="M41 35l-4 0c-1,0 -1,-1 -1,-1l0 -10c0,-1 -1,-2 -2,-2 -1,0 -2,1 -2,2l0 10c0,3 2,5 5,5l4 0c1,0 2,-1 2,-2 0,-1 -1,-2 -2,-2l0 0z"/>
  </g>
 </g>
</svg>
